<svg xmlns="http://www.w3.org/2000/svg" xmlns:xlink="http://www.w3.org/1999/xlink" width="384" zoomAndPan="magnify" viewBox="0 0 288 287.999989" height="384" preserveAspectRatio="xMidYMid meet" version="1.0"><defs><g/><clipPath id="c5d9a802cd"><path d="M 45 3 L 83 3 L 83 86 L 45 86 Z M 45 3 " clip-rule="nonzero"/></clipPath><clipPath id="0acff58842"><path d="M 68.316406 0.378906 L 89.53125 8.136719 L 59.65625 89.816406 L 38.441406 82.054688 Z M 68.316406 0.378906 " clip-rule="nonzero"/></clipPath><clipPath id="e949a55dbc"><path d="M 41.3125 -9.5 L 89.046875 7.960938 L 59.171875 89.636719 L 11.4375 72.179688 Z M 41.3125 -9.5 " clip-rule="nonzero"/></clipPath><clipPath id="07ec497023"><path d="M 2 2 L 47 2 L 47 86 L 2 86 Z M 2 2 " clip-rule="nonzero"/></clipPath><clipPath id="5b1c1c5e9a"><path d="M 0 8.136719 L 26.492188 -1.640625 L 56.601562 79.953125 L 30.109375 89.730469 Z M 0 8.136719 " clip-rule="nonzero"/></clipPath><clipPath id="de6a911c60"><path d="M 0 8.136719 L 47.683594 -9.460938 L 77.792969 72.132812 L 30.109375 89.730469 Z M 0 8.136719 " clip-rule="nonzero"/></clipPath><clipPath id="53f5f1d54d"><path d="M 8 6 L 18 6 L 18 29 L 8 29 Z M 8 6 " clip-rule="nonzero"/></clipPath><clipPath id="3187432df1"><path d="M 0 8.136719 L 26.492188 -1.640625 L 56.601562 79.953125 L 30.109375 89.730469 Z M 0 8.136719 " clip-rule="nonzero"/></clipPath><clipPath id="adbe887f92"><path d="M 0 8.136719 L 47.683594 -9.460938 L 77.792969 72.132812 L 30.109375 89.730469 Z M 0 8.136719 " clip-rule="nonzero"/></clipPath><clipPath id="a48e3a63c4"><path d="M 13 4 L 24 4 L 24 27 L 13 27 Z M 13 4 " clip-rule="nonzero"/></clipPath><clipPath id="8cad596f36"><path d="M 0 8.136719 L 26.492188 -1.640625 L 56.601562 79.953125 L 30.109375 89.730469 Z M 0 8.136719 " clip-rule="nonzero"/></clipPath><clipPath id="9640bcff9f"><path d="M 0 8.136719 L 47.683594 -9.460938 L 77.792969 72.132812 L 30.109375 89.730469 Z M 0 8.136719 " clip-rule="nonzero"/></clipPath><clipPath id="0a57297195"><rect x="0" width="274" y="0" height="105"/></clipPath></defs><g transform="matrix(1, 0, 0, 1, 0, 92)"><g clip-path="url(#0a57297195)"><g fill="#ffffff" fill-opacity="1"><g transform="translate(79.780754, 70.908507)"><g><path d="M 22.59375 0.484375 C 19.570312 0.484375 16.816406 -0.0351562 14.328125 -1.078125 C 11.835938 -2.128906 9.695312 -3.597656 7.90625 -5.484375 C 6.125 -7.367188 4.75 -9.546875 3.78125 -12.015625 C 2.820312 -14.484375 2.34375 -17.125 2.34375 -19.9375 C 2.34375 -22.789062 2.820312 -25.441406 3.78125 -27.890625 C 4.75 -30.335938 6.125 -32.503906 7.90625 -34.390625 C 9.695312 -36.273438 11.835938 -37.738281 14.328125 -38.78125 C 16.816406 -39.832031 19.570312 -40.359375 22.59375 -40.359375 C 25.601562 -40.359375 28.351562 -39.832031 30.84375 -38.78125 C 33.332031 -37.738281 35.46875 -36.273438 37.25 -34.390625 C 39.039062 -32.503906 40.414062 -30.335938 41.375 -27.890625 C 42.34375 -25.441406 42.828125 -22.789062 42.828125 -19.9375 C 42.828125 -17.125 42.34375 -14.484375 41.375 -12.015625 C 40.414062 -9.546875 39.039062 -7.367188 37.25 -5.484375 C 35.46875 -3.597656 33.332031 -2.128906 30.84375 -1.078125 C 28.351562 -0.0351562 25.601562 0.484375 22.59375 0.484375 Z M 22.59375 -3.921875 C 25.84375 -3.921875 28.640625 -4.628906 30.984375 -6.046875 C 33.335938 -7.472656 35.144531 -9.398438 36.40625 -11.828125 C 37.675781 -14.265625 38.3125 -16.96875 38.3125 -19.9375 C 38.3125 -22.945312 37.675781 -25.65625 36.40625 -28.0625 C 35.144531 -30.476562 33.335938 -32.394531 30.984375 -33.8125 C 28.640625 -35.238281 25.84375 -35.953125 22.59375 -35.953125 C 19.375 -35.953125 16.578125 -35.238281 14.203125 -33.8125 C 11.835938 -32.394531 10.019531 -30.476562 8.75 -28.0625 C 7.488281 -25.65625 6.859375 -22.945312 6.859375 -19.9375 C 6.859375 -16.96875 7.488281 -14.265625 8.75 -11.828125 C 10.019531 -9.398438 11.835938 -7.472656 14.203125 -6.046875 C 16.578125 -4.628906 19.375 -3.921875 22.59375 -3.921875 Z M 22.59375 -3.921875 "/></g></g></g><g fill="#ffffff" fill-opacity="1"><g transform="translate(130.377089, 70.908507)"><g><path d="M 21.328125 0.484375 C 18.035156 0.484375 15.113281 -0.25 12.5625 -1.71875 C 10.007812 -3.1875 8.007812 -5.242188 6.5625 -7.890625 C 5.113281 -10.535156 4.390625 -13.628906 4.390625 -17.171875 L 4.390625 -39.875 L 8.921875 -39.875 L 8.921875 -17.046875 C 8.921875 -13.953125 9.507812 -11.441406 10.6875 -9.515625 C 11.875 -7.585938 13.421875 -6.171875 15.328125 -5.265625 C 17.234375 -4.367188 19.234375 -3.921875 21.328125 -3.921875 C 23.453125 -3.921875 25.457031 -4.367188 27.34375 -5.265625 C 29.226562 -6.171875 30.773438 -7.585938 31.984375 -9.515625 C 33.191406 -11.441406 33.796875 -13.953125 33.796875 -17.046875 L 33.796875 -39.875 L 38.3125 -39.875 L 38.3125 -17.171875 C 38.3125 -13.671875 37.585938 -10.59375 36.140625 -7.9375 C 34.691406 -5.289062 32.691406 -3.222656 30.140625 -1.734375 C 27.597656 -0.253906 24.660156 0.484375 21.328125 0.484375 Z M 21.328125 0.484375 "/></g></g></g><g fill="#ffffff" fill-opacity="1"><g transform="translate(178.503868, 70.908507)"><g><path d="M 21.625 0.484375 C 17.644531 0.484375 14.207031 -0.425781 11.3125 -2.25 C 8.425781 -4.082031 6.207031 -6.546875 4.65625 -9.640625 C 3.113281 -12.734375 2.34375 -16.164062 2.34375 -19.9375 C 2.34375 -23.707031 3.113281 -27.140625 4.65625 -30.234375 C 6.207031 -33.328125 8.425781 -35.785156 11.3125 -37.609375 C 14.207031 -39.441406 17.644531 -40.359375 21.625 -40.359375 C 24.632812 -40.359375 27.34375 -39.828125 29.75 -38.765625 C 32.164062 -37.703125 34.210938 -36.242188 35.890625 -34.390625 C 37.578125 -32.546875 38.84375 -30.398438 39.6875 -27.953125 L 34.9375 -27.953125 C 33.9375 -30.398438 32.347656 -32.34375 30.171875 -33.78125 C 28.003906 -35.226562 25.273438 -35.953125 21.984375 -35.953125 C 18.773438 -35.953125 16.035156 -35.238281 13.765625 -33.8125 C 11.492188 -32.394531 9.773438 -30.476562 8.609375 -28.0625 C 7.441406 -25.65625 6.859375 -22.945312 6.859375 -19.9375 C 6.859375 -16.96875 7.441406 -14.265625 8.609375 -11.828125 C 9.773438 -9.398438 11.492188 -7.472656 13.765625 -6.046875 C 16.035156 -4.628906 18.773438 -3.921875 21.984375 -3.921875 C 25.273438 -3.921875 28.003906 -4.640625 30.171875 -6.078125 C 32.347656 -7.523438 33.9375 -9.472656 34.9375 -11.921875 L 39.6875 -11.921875 C 38.84375 -9.515625 37.578125 -7.375 35.890625 -5.5 C 34.210938 -3.632812 32.164062 -2.171875 29.75 -1.109375 C 27.34375 -0.046875 24.632812 0.484375 21.625 0.484375 Z M 21.625 0.484375 "/></g></g></g><g fill="#ffffff" fill-opacity="1"><g transform="translate(225.486206, 70.908507)"><g><path d="M 4.875 0 L 4.875 -39.875 L 9.390625 -39.875 L 9.390625 -22.171875 L 32.59375 -22.171875 L 32.59375 -39.875 L 37.109375 -39.875 L 37.109375 0 L 32.59375 0 L 32.59375 -17.765625 L 9.390625 -17.765625 L 9.390625 0 Z M 4.875 0 "/></g></g></g><g fill="#ffffff" fill-opacity="1"><g transform="translate(211.670498, 97.074865)"><g><path d="M 7.78125 0.21875 C 6.40625 0.21875 5.203125 -0.09375 4.171875 -0.71875 C 3.140625 -1.34375 2.335938 -2.1875 1.765625 -3.25 C 1.203125 -4.320312 0.921875 -5.5 0.921875 -6.78125 C 0.921875 -8.082031 1.191406 -9.257812 1.734375 -10.3125 C 2.273438 -11.375 3.050781 -12.210938 4.0625 -12.828125 C 5.070312 -13.453125 6.265625 -13.765625 7.640625 -13.765625 C 9.035156 -13.765625 10.234375 -13.453125 11.234375 -12.828125 C 12.234375 -12.210938 13.003906 -11.375 13.546875 -10.3125 C 14.097656 -9.257812 14.375 -8.082031 14.375 -6.78125 L 14.375 -5.96875 L 3.015625 -5.96875 C 3.117188 -5.164062 3.375 -4.4375 3.78125 -3.78125 C 4.1875 -3.125 4.734375 -2.597656 5.421875 -2.203125 C 6.109375 -1.816406 6.90625 -1.625 7.8125 -1.625 C 8.769531 -1.625 9.570312 -1.835938 10.21875 -2.265625 C 10.875 -2.691406 11.378906 -3.238281 11.734375 -3.90625 L 13.96875 -3.90625 C 13.488281 -2.695312 12.738281 -1.707031 11.71875 -0.9375 C 10.695312 -0.164062 9.382812 0.21875 7.78125 0.21875 Z M 3.03125 -7.859375 L 12.25 -7.859375 C 12.070312 -9.015625 11.582031 -9.976562 10.78125 -10.75 C 9.988281 -11.53125 8.941406 -11.921875 7.640625 -11.921875 C 6.335938 -11.921875 5.289062 -11.53125 4.5 -10.75 C 3.71875 -9.976562 3.226562 -9.015625 3.03125 -7.859375 Z M 3.03125 -7.859375 "/></g></g></g><g fill="#ffffff" fill-opacity="1"><g transform="translate(229.209055, 97.074865)"><g><path d="M 1.765625 0 L 1.765625 -18.984375 L 3.796875 -18.984375 L 3.796875 0 Z M 1.765625 0 "/></g></g></g><g fill="#ffffff" fill-opacity="1"><g transform="translate(237.205761, 97.074865)"><g><path d="M 8.640625 0.21875 C 7.523438 0.21875 6.5625 0.00390625 5.75 -0.421875 C 4.945312 -0.859375 4.296875 -1.441406 3.796875 -2.171875 L 3.796875 0 L 1.765625 0 L 1.765625 -18.984375 L 3.796875 -18.984375 L 3.796875 -11.359375 C 4.296875 -12.097656 4.945312 -12.679688 5.75 -13.109375 C 6.5625 -13.546875 7.523438 -13.765625 8.640625 -13.765625 C 9.960938 -13.765625 11.113281 -13.453125 12.09375 -12.828125 C 13.082031 -12.210938 13.847656 -11.375 14.390625 -10.3125 C 14.929688 -9.257812 15.203125 -8.082031 15.203125 -6.78125 C 15.203125 -5.5 14.929688 -4.320312 14.390625 -3.25 C 13.847656 -2.1875 13.082031 -1.34375 12.09375 -0.71875 C 11.113281 -0.09375 9.960938 0.21875 8.640625 0.21875 Z M 8.375 -1.625 C 9.382812 -1.625 10.242188 -1.859375 10.953125 -2.328125 C 11.671875 -2.796875 12.21875 -3.421875 12.59375 -4.203125 C 12.976562 -4.992188 13.171875 -5.851562 13.171875 -6.78125 C 13.171875 -7.71875 12.976562 -8.570312 12.59375 -9.34375 C 12.21875 -10.125 11.671875 -10.75 10.953125 -11.21875 C 10.242188 -11.6875 9.382812 -11.921875 8.375 -11.921875 C 7.382812 -11.921875 6.535156 -11.6875 5.828125 -11.21875 C 5.117188 -10.75 4.582031 -10.125 4.21875 -9.34375 C 3.863281 -8.570312 3.6875 -7.71875 3.6875 -6.78125 C 3.6875 -5.851562 3.863281 -4.992188 4.21875 -4.203125 C 4.582031 -3.421875 5.117188 -2.796875 5.828125 -2.328125 C 6.535156 -1.859375 7.382812 -1.625 8.375 -1.625 Z M 8.375 -1.625 "/></g></g></g><g fill="#ffffff" fill-opacity="1"><g transform="translate(255.774392, 97.074865)"><g><path d="M 1.6875 -15.828125 L 1.6875 -18.484375 L 3.875 -18.484375 L 3.875 -15.828125 Z M 1.765625 0 L 1.765625 -13.5625 L 3.796875 -13.5625 L 3.796875 0 Z M 1.765625 0 "/></g></g></g><g clip-path="url(#c5d9a802cd)"><g clip-path="url(#0acff58842)"><g clip-path="url(#e949a55dbc)"><path fill="#ffffff" d="M 75.203125 6.097656 C 75.828125 6.128906 76.90625 6.847656 77.765625 8.679688 C 79.820312 13.066406 81.996094 20.894531 78.0625 31.648438 C 74.4375 41.558594 70.101562 46.546875 65.910156 48.476562 C 65.582031 48.625 65.339844 48.910156 65.242188 49.261719 L 56.269531 80.875 C 55.902344 82.179688 55.183594 82.800781 54.21875 83.128906 C 53.257812 83.460938 51.992188 83.402344 50.824219 82.976562 C 49.65625 82.554688 48.617188 81.777344 48.027344 80.859375 C 47.445312 79.941406 47.242188 78.941406 47.714844 77.652344 L 72.953125 8.652344 C 73.339844 7.597656 73.796875 6.914062 74.195312 6.539062 C 74.59375 6.171875 74.890625 6.082031 75.203125 6.097656 Z M 75.316406 3.625 C 74.316406 3.589844 73.308594 4 72.519531 4.730469 C 71.726562 5.460938 71.113281 6.488281 70.628906 7.804688 L 45.394531 76.800781 C 44.675781 78.769531 45.003906 80.71875 45.953125 82.195312 C 46.894531 83.671875 48.367188 84.710938 49.988281 85.296875 C 51.605469 85.882812 53.402344 86.027344 55.027344 85.46875 C 56.65625 84.90625 58.074219 83.558594 58.644531 81.558594 L 67.539062 50.21875 C 72.347656 47.71875 76.785156 42.328125 80.382812 32.496094 C 84.550781 21.101562 82.261719 12.464844 80 7.636719 C 78.925781 5.339844 77.324219 3.722656 75.316406 3.625 Z M 75.316406 3.625 " fill-opacity="1" fill-rule="evenodd"/></g></g></g><g clip-path="url(#07ec497023)"><g clip-path="url(#5b1c1c5e9a)"><g clip-path="url(#de6a911c60)"><path fill="#ffffff" d="M 3.105469 8.496094 C 2.527344 8.753906 2.234375 9.402344 2.425781 10.003906 L 10.410156 35.9375 C 11.230469 38.601562 12.933594 40.1875 14.765625 40.996094 C 16.324219 41.679688 17.867188 41.816406 19.269531 42.007812 L 31.917969 81.257812 C 33.167969 85.132812 37.589844 86.929688 41.410156 85.519531 C 45.230469 84.109375 47.421875 79.871094 45.855469 76.113281 L 29.96875 38.058594 C 30.917969 37 32.007812 35.890625 32.75 34.359375 C 33.613281 32.558594 33.867188 30.25 32.765625 27.6875 L 21.996094 2.785156 C 21.722656 2.15625 20.996094 1.871094 20.371094 2.144531 C 19.746094 2.410156 19.457031 3.140625 19.730469 3.765625 L 30.503906 28.667969 C 31.363281 30.65625 31.144531 31.980469 30.519531 33.285156 C 29.890625 34.589844 28.730469 35.808594 27.628906 37.070312 C 27.316406 37.421875 27.234375 37.921875 27.417969 38.351562 L 43.570312 77.058594 C 44.5625 79.4375 43.171875 82.238281 40.554688 83.203125 C 37.941406 84.167969 35.058594 82.945312 34.269531 80.492188 L 21.40625 40.570312 C 21.265625 40.125 20.878906 39.804688 20.417969 39.730469 C 18.757812 39.484375 17.082031 39.316406 15.753906 38.730469 C 14.425781 38.152344 13.410156 37.28125 12.773438 35.210938 L 4.78125 9.28125 C 4.574219 8.570312 3.789062 8.203125 3.105469 8.496094 Z M 3.105469 8.496094 " fill-opacity="1" fill-rule="evenodd"/></g></g></g><g clip-path="url(#53f5f1d54d)"><g clip-path="url(#3187432df1)"><g clip-path="url(#adbe887f92)"><path fill="#ffffff" d="M 8.90625 6.355469 C 8.269531 6.601562 7.953125 7.316406 8.199219 7.953125 L 15.558594 27.894531 C 15.777344 28.5625 16.503906 28.910156 17.164062 28.667969 C 17.816406 28.425781 18.144531 27.6875 17.875 27.039062 L 10.515625 7.097656 C 10.285156 6.4375 9.558594 6.105469 8.90625 6.355469 Z M 8.90625 6.355469 " fill-opacity="1" fill-rule="evenodd"/></g></g></g><g clip-path="url(#a48e3a63c4)"><g clip-path="url(#8cad596f36)"><g clip-path="url(#9640bcff9f)"><path fill="#ffffff" d="M 14.664062 4.230469 C 14.023438 4.472656 13.703125 5.191406 13.949219 5.832031 L 21.308594 25.769531 C 21.546875 26.414062 22.257812 26.746094 22.898438 26.507812 C 23.542969 26.273438 23.871094 25.554688 23.636719 24.914062 L 16.277344 4.972656 C 16.042969 4.3125 15.316406 3.980469 14.664062 4.230469 Z M 14.664062 4.230469 " fill-opacity="1" fill-rule="evenodd"/></g></g></g></g></g></svg>